<svg id="Artwork" height="512" viewBox="0 0 512 512" width="512" xmlns="http://www.w3.org/2000/svg"><path d="m256 134.39a183.84 183.84 0 0 1 41 4.6v-35.99a19.4 19.4 0 0 0 -19.4-19.4h-44.66a19.4 19.4 0 0 0 -19.41 19.4v36.37a184.54 184.54 0 0 1 42.47-4.98z" fill="#fcc956"/><path d="m231.57 103a19.4 19.4 0 0 1 19.43-19.44h-18a19.4 19.4 0 0 0 -19.47 19.44v36.37q8.86-2.09 18-3.3z" fill="#f7ddad"/><path d="m277.58 83.56h-27.06a19.4 19.4 0 0 1 19.4 19.4v32a182.33 182.33 0 0 1 27.08 4.04v-36a19.4 19.4 0 0 0 -19.42-19.44z" fill="#f4ac2c"/><circle cx="256" cy="318.19" fill="#3939c6" r="183.79"/><circle cx="255.26" cy="288.14" fill="#4f4fc9" r="153.75"/><circle cx="255.26" cy="230.55" fill="#7171e2" r="96.15"/><ellipse cx="152.83" cy="265.99" fill="#9f9fff" rx="51.74" ry="28.01" transform="matrix(.343 -.939 .939 .343 -149.44 318.32)"/><path d="m359 305.3-51.49-51.9-51.51 51.9-51.49-51.9-51.51 51.9-51.49-51.9-25 25.25a185 185 0 0 0 -.77 75.42l25.81-26 51.45 51.93 51.49-51.9 51.51 51.9 51.49-51.9 51.51 51.9 51.49-51.9 25.81 26a185 185 0 0 0 -.77-75.42l-25-25.25z" fill="#eaa824"/><path d="m307.49 253.4-51.49 51.9-51.49-51.9-51.51 51.9-48.27-48.66a154.49 154.49 0 0 0 4.22 78.9l44.05 44.46 51.49-51.9 51.51 51.9 51.49-51.9 51.51 51.9 41.83-42.17a154.75 154.75 0 0 0 5.21-79.9l-47.04 47.37z" fill="#fcc956"/><path d="m176.85 281.28-23.85 24.02-31-31.3c-3 19.82 1.82 36.48 13.11 40.6 13.45 4.91 31.39-9.75 41.74-33.32z" fill="#ffedd2"/><path d="m174.86 283.29a96.17 96.17 0 0 0 161.39-.9l-28.76-29-51.49 51.91-51.49-51.9z" fill="#ffe0ae"/><path d="m307 131.19v-28.19a29.46 29.46 0 0 0 -22.74-28.65 72.56 72.56 0 0 0 5.91-29.44c0-13.19-3.25-24.35-9.39-32.28a32.16 32.16 0 0 0 -51 0c-6.15 7.93-9.39 19.09-9.39 32.28a72.56 72.56 0 0 0 5.9 29.44 29.47 29.47 0 0 0 -22.78 28.65v28.6c-81.45 22.94-141.32 97.9-141.32 186.59 0 106.87 86.94 193.81 193.81 193.81s193.81-86.94 193.81-193.81c0-89.19-60.6-164.55-142.81-187zm-224.77 187a173.64 173.64 0 0 1 3.46-34.59l15.84-16 44.38 44.73a10.36 10.36 0 0 0 14.23 0l44.37-44.73 44.37 44.73a10.37 10.37 0 0 0 14.24 0l44.37-44.73 44.37 44.73a10.36 10.36 0 0 0 14.23 0l44.38-44.73 15.84 16a173.64 173.64 0 0 1 3.46 34.59q0 7.31-.61 14.47l-11.58-11.66a10.35 10.35 0 0 0 -14.23 0l-44.35 44.72-44.4-44.72a10.35 10.35 0 0 0 -14.23 0l-44.37 44.72-44.37-44.72a10.35 10.35 0 0 0 -14.23 0l-44.4 44.72-44.35-44.72a10.35 10.35 0 0 0 -14.23 0l-11.58 11.66q-.6-7.15-.61-14.47zm173.03-298.19c11 0 14.86 12.83 14.86 24.83 0 13.49-4.27 23.7-8.85 28.66h-12c-4.58-5-8.85-15.17-8.85-28.66-.03-11.96 3.88-24.83 14.84-24.83zm-31.71 83a9.4 9.4 0 0 1 9.39-9.38h44.64a9.39 9.39 0 0 1 9.42 9.38v23.89a194.35 194.35 0 0 0 -63.41.25zm32.45 41.42a174 174 0 0 1 157 99.29 10.12 10.12 0 0 0 -2.51-.34 10 10 0 0 0 -7.12 3l-44.37 44.7-44.4-44.73a10.36 10.36 0 0 0 -14.23 0l-44.37 44.73-44.37-44.73a10.36 10.36 0 0 0 -14.23 0l-44.4 44.73-44.37-44.73a10 10 0 0 0 -7.12-3 10.12 10.12 0 0 0 -2.51.34 174 174 0 0 1 157-99.26zm0 347.58c-82.38 0-151.56-57.63-169.34-134.69l14.87-15 44.38 44.69a10.34 10.34 0 0 0 14.23 0l44.37-44.72 44.37 44.72a10.35 10.35 0 0 0 14.24 0l44.37-44.72 44.37 44.72a10.34 10.34 0 0 0 14.23 0l44.38-44.72 14.87 15c-17.78 77.05-86.96 134.72-169.34 134.72z"/></svg>