<svg id="Layer_1" enable-background="new 0 0 512 512" viewBox="0 0 512 512" xmlns="http://www.w3.org/2000/svg"><g id="guide"/><path d="m491.2 212.5c-4.2-1.9-8.9-1.1-12.4 2l-46 41.6c-2.7 2.4-5.9 2.2-8 1.3-2.1-1-4.4-3.2-4.4-6.8v-27.6c0-4.6-2.6-8.6-6.8-10.5s-8.9-1.1-12.4 2l-46 41.6c-2.7 2.4-5.9 2.2-8 1.3-2.1-1-4.4-3.2-4.4-6.8v-27.6c0-4.6-2.6-8.6-6.8-10.5s-8.9-1.1-12.4 2l-46 41.6c-2.7 2.4-5.9 2.2-8 1.3-2.1-1-4.4-3.2-4.4-6.8v-27.6c0-4.6-2.6-8.6-6.8-10.5s-8.9-1.1-12.4 2l-46 41.6c-2.7 2.4-5.9 2.2-8 1.3-2.1-1-4.4-3.2-4.4-6.8v-27.6c0-4.6-2.6-8.6-6.8-10.5s-8.9-1.1-12.4 2l-46 41.6c-2.7 2.4-5.9 2.2-8 1.3-2.1-1-4.4-3.2-4.4-6.8v-27.6c0-4.6-2.6-8.6-6.8-10.5s-8.9-1.1-12.4 2l-73 66c-2.4 2.2-3.8 5.3-3.8 8.5 0 4.6 2.6 8.6 6.8 10.5s8.9 1.1 12.4-2l46-41.6c2.7-2.4 5.9-2.2 8-1.3 2.1 1 4.4 3.2 4.4 6.8v27.6c0 4.6 2.6 8.6 6.8 10.5s8.9 1.1 12.4-2l46-41.6c2.7-2.4 5.9-2.2 8-1.3 2.1 1 4.4 3.2 4.4 6.8v27.6c0 4.6 2.6 8.6 6.8 10.5s8.9 1.1 12.4-2l46-41.6c2.7-2.4 5.9-2.2 8-1.3 2.1 1 4.4 3.2 4.4 6.8v27.6c0 4.6 2.6 8.6 6.8 10.5s8.9 1.1 12.4-2l46-41.6c2.7-2.4 5.9-2.2 8-1.3 2.1 1 4.4 3.2 4.4 6.8v27.6c0 4.6 2.6 8.6 6.8 10.5s8.9 1.1 12.4-2l46-41.6c2.7-2.4 5.9-2.2 8-1.3 2.1 1 4.4 3.2 4.4 6.8v27.6c0 4.6 2.6 8.6 6.8 10.5 1.5.7 3.1 1 4.7 1 2.8 0 5.5-1 7.7-3l73-66c2.4-2.2 3.8-5.3 3.8-8.5 0-4.6-2.6-8.6-6.8-10.5z"/><g id="Number"/></svg>