<svg version="1.1" id="Layer_1" xmlns="http://www.w3.org/2000/svg" xmlns:xlink="http://www.w3.org/1999/xlink" x="0px" y="0px" viewBox="0 0 511.974 511.974" style="enable-background:new 0 0 511.974 511.974;" xml:space="preserve">
<g>
	<g>
		<circle style="fill:#FFAC89;" cx="60.222" cy="225.852" r="30.118"/>
		<path style="fill:#FD5C6F;" d="M466.812,233.38l-37.65,15.06c0,0-128-105.41-188.23-105.41l-98.3,7.86l-89.94,7.2&#10;&#9;&#9;&#9;c0,0-20.82-138.8,137.43-149.88c6.58-0.47,13.47-0.71,20.69-0.71C391.512,7.5,436.692,90.32,466.812,233.38z"/>
		<path style="fill:#F6334C;" d="M149.292,114.67c2.21,13.81-0.61,25.83-6.66,36.22l-89.94,7.2c0,0-20.82-138.8,137.43-149.88&#10;&#9;&#9;&#9;C172.832,23.71,140.632,60.6,149.292,114.67z"/>
		<path style="fill:#E8ECF9;" d="M489.402,240.91c0,29.11-23.6,52.71-52.71,52.71c-24.17,0-44.54-16.27-50.76-38.45&#10;&#9;&#9;&#9;c-0.51,0.11-1.04,0.16-1.58,0.16c-4.53,0-8.21-3.68-8.21-8.21c0-4.42,3.5-8.02,7.88-8.19c1.04-28.19,24.22-50.72,52.67-50.72&#10;&#9;&#9;&#9;C465.802,188.21,489.402,211.8,489.402,240.91z"/>
		<circle style="fill:#FFBF9D;" cx="361.399" cy="225.852" r="30.118"/>
		<path style="fill:#F3F5FC;" d="M387.122,321.12c2.81,5.27,4.4,11.29,4.4,17.67c0,17.67-12,31.99-27.68,36.32&#10;&#9;&#9;&#9;c-7.48,2.07-11.98,9.47-10.59,17.11c0.55,3,0.74,6.13,0.54,9.33c-1.19,18.15-15.5,33.06-33.59,34.92c-1.9,0.2-3.77,0.25-5.62,0.18&#10;&#9;&#9;&#9;c-6.92-0.3-13,4.27-15.01,10.9c-4.64,15.35-18.9,26.77-36.05,26.77c-1.18,0-2.34-0.05-3.49-0.16c-6.42-0.59-12.41,2.88-15.17,8.71&#10;&#9;&#9;&#9;c-6.03,12.75-19.01,21.57-34.05,21.57c-15.04,0-28.02-8.82-34.06-21.57c-2.75-5.83-8.74-9.3-15.16-8.71&#10;&#9;&#9;&#9;c-1.15,0.11-2.31,0.16-3.49,0.16c-6.41,0-12.41-1.59-17.67-4.39c-8.8-4.69-15.48-12.76-18.39-22.38c-2-6.63-8.09-11.2-15.01-10.9&#10;&#9;&#9;&#9;c-1.84,0.07-3.72,0.02-5.61-0.18c-18.09-1.86-32.41-16.77-33.59-34.92c-0.21-3.2-0.02-6.33,0.53-9.33&#10;&#9;&#9;&#9;c1.4-7.64-3.1-15.04-10.58-17.11c-15.69-4.33-27.68-18.67-27.68-36.32c0-6.38,1.59-12.4,4.39-17.67&#10;&#9;&#9;&#9;c2.98-5.58,2.16-12.53-2.11-17.21c-6.14-6.74-9.87-15.73-9.81-25.59c0.08-12.85,6.75-24.08,16.74-30.8l20.91,1.71l8.39-8.32&#10;&#9;&#9;&#9;h292.03c20.82,0,38.28,16.58,38.41,37.41c0.06,9.86-3.67,18.85-9.82,25.59C384.972,308.59,384.152,315.54,387.122,321.12z"/>
		<path style="fill:#E8ECF9;" d="M170.552,325.4l-30.12,144.53c-8.8-4.69-15.48-12.76-18.39-22.38c-2-6.63-8.09-11.2-15.01-10.9&#10;&#9;&#9;&#9;c-1.84,0.07-3.72,0.02-5.61-0.18c-18.09-1.86-32.41-16.77-33.59-34.92c-0.21-3.2-0.02-6.33,0.53-9.33&#10;&#9;&#9;&#9;c1.4-7.64-3.1-15.04-10.58-17.11c-15.69-4.33-27.68-18.67-27.68-36.32c0-6.38,1.59-12.4,4.39-17.67&#10;&#9;&#9;&#9;c2.98-5.58,2.16-12.53-2.11-17.21c-6.14-6.74-9.87-15.73-9.81-25.59c0.13-20.83,17.58-37.41,38.41-37.41h64.8l15.2,9.07&#10;&#9;&#9;&#9;C140.982,249.98,123.272,302.93,170.552,325.4z"/>
		<path style="fill:#FFD4BD;" d="M353.862,225.85c0,24.69-6.97,47.83-19.14,67.77H86.882c-6.18-10.13-11.02-21.09-14.29-32.65v-0.01&#10;&#9;&#9;&#9;l8.22-21.86l-10.14-40.68c3.13-14.41,8.67-27.99,16.21-40.33l43.84-5.33l80.08-9.73l123.92,15.06&#10;&#9;&#9;&#9;C346.902,178.02,353.862,201.17,353.862,225.85z"/>
		<path style="fill:#FFBF9D;" d="M153.712,293.62h-66.83c-12.17-19.94-19.14-43.08-19.14-67.77c0-24.68,6.96-47.83,19.14-67.76&#10;&#9;&#9;&#9;l43.84-5.33c8.44,4.82,16.82,10.73,16.82,10.73s-33.54,46.16-1.54,95.18C154.382,271.51,155.992,283.31,153.712,293.62z"/>
		<path style="fill:#E8ECF9;" d="M203.282,253.36v22.59c-3.87,27.08-21.65,40.24-38.03,46.64c-7.08,2.77-13.9,4.27-19.21,5.09&#10;&#9;&#9;&#9;l-26.93-40.03l21.87-37.67C179.762,227.75,203.282,253.36,203.282,253.36z"/>
		<path style="fill:#D7DDF5;" d="M165.252,322.59c-15.49,6.06-29.73,6.06-29.73,6.06c-61.27,0-75.34-29.49-77.3-51.56&#10;&#9;&#9;&#9;c-0.93-10.57,9.3-18.58,19.45-15.46c19.23,5.92,40.71,3.16,57.85-8.27c1.85-1.23,3.67-2.36,5.46-3.38&#10;&#9;&#9;&#9;C140.982,249.98,124.642,298.83,165.252,322.59z"/>
		<path style="fill:#E8ECF9;" d="M218.34,275.954c7.53,52.7,67.76,52.7,67.76,52.7c61.27,0,75.341-29.496,77.294-51.564&#10;&#9;&#9;&#9;c0.936-10.575-9.299-18.576-19.447-15.456c-19.232,5.913-40.707,3.156-57.847-8.27c-42.02-28.02-67.76,0-67.76,0V275.954z"/>
		<path style="fill:#F3F5FC;" d="M379.632,187.16c-1.3,3.18-3.01,6.4-5.23,9.61c-5.23,7.57-15.97,8.72-22.65,2.4&#10;&#9;&#9;&#9;c-16.38-15.48-56.43-41.42-140.94-41.42c-24.72,0-45.64,2.22-63.27,5.74l-40.01,3.44l-59.21,31.25c-0.39-0.44-0.76-0.91-1.1-1.41&#10;&#9;&#9;&#9;c-2.22-3.21-3.94-6.43-5.24-9.61c-7.11-17.37-2.76-37.03,9.91-50.31l95.94-41.48c18.19-3.32,39.11-5.39,62.98-5.39&#10;&#9;&#9;&#9;c84.49,0,131.95,25.93,152.76,41.42C380.852,144.26,387.792,167.22,379.632,187.16z"/>
		<path style="fill:#E8ECF9;" d="M147.542,163.49c-42.65,8.54-66.09,24.73-77.67,35.68c-6.69,6.32-17.42,5.17-22.65-2.4&#10;&#9;&#9;&#9;c-2.22-3.21-3.94-6.43-5.24-9.61c-8.16-19.94-1.22-42.9,16.07-55.76c14.93-11.11,43.58-27.6,89.78-36.03h0.02&#10;&#9;&#9;&#9;C147.852,95.37,120.022,126.98,147.542,163.49z"/>
		<path style="fill:#E8ECF9;" d="M142.022,497.82v0.01c-32.61,14.63-70.12,4.15-90.82-23.18c-3.38-4.46-6.31-9.38-8.7-14.7&#10;&#9;&#9;&#9;c-4.49-10.01-6.61-20.47-6.61-30.77c0-20.15,8.13-39.67,22.61-53.85l58.47-17.32c13.65,4.05,25.59,13.6,32.3,27.29&#10;&#9;&#9;&#9;c0.26,0.54,0.52,1.09,0.77,1.64l18.49,41.22C180.452,454.72,168.572,485.91,142.022,497.82z"/>
		<path style="fill:#D7DDF5;" d="M149.272,385.3l-44.19,54.61c0,0-43.94-5.99-53.88,34.74c-3.38-4.46-6.31-9.38-8.7-14.7&#10;&#9;&#9;&#9;c-4.49-10.01-6.61-20.47-6.61-30.77c0-28.76,16.56-56.22,44.49-68.75c7-3.14,14.33-4.63,21.54-4.63&#10;&#9;&#9;&#9;C121.472,355.8,140.172,366.74,149.272,385.3z"/>
		<path style="fill:#FFAC89;" d="M222.342,301.313l23.573-12.633c6.876-3.685,15.429-1.484,19.672,5.062v0&#10;&#9;&#9;&#9;c12.456,19.216,2.614,45.287-19.587,50.9c-5.257,1.329-18.993-0.135-26.21-0.523L222.342,301.313z"/>
		<path style="fill:#FFD4BD;" d="M263.522,353.73v7.65c0,3.24-0.69,6.32-1.92,9.11l-9.15,5.82l-4.02,6.38c0,0.13,0,0.26,0.01,0.39&#10;&#9;&#9;&#9;c0.02,0.25,0.02,0.51,0.02,0.77v7.65c0,6.81-3.02,12.92-7.8,17.06h-9.28l-5.51,5.52v6.99c0,12.25-9.52,22.68-21.76,23.12&#10;&#9;&#9;&#9;c-9.53,0.34-17.81-5.23-21.44-13.33l-8.37,4.2l-0.99,9.85c-8.11,9.04-19.77,14.35-32.18,14.35c-11.95,0-22.76-4.84-30.59-12.67&#10;&#9;&#9;&#9;c-2.04-2.04-3.87-4.27-5.46-6.68l-0.55-28.9l100.71-156.93l25.41,8.51c1.47,3.14,2.29,6.64,2.29,10.32c0,0.36,0,0.72-0.02,1.08&#10;&#9;&#9;&#9;c-0.77,17.64-2.39,27.5-4.34,34.57l-5.37,7.48l-0.03,7.69h10.34C250.092,323.73,263.522,337.17,263.522,353.73z"/>
		<path style="fill:#FFBF9D;" d="M230.652,262.59c-6.42-1.15-22.15-1.55-30.24,19.06c-10.32,26.3-17.07,56.57-51.12,88.34&#10;&#9;&#9;&#9;c-29.57,27.6-40.78,58.15-44.21,69.92c-4.56-6.85-7.21-15.07-7.21-23.91c0-13.62,2.85-26.93,8.2-39.15&#10;&#9;&#9;&#9;c5.35-12.22,13.21-23.33,23.23-32.55c36.68-33.76,50.55-61.7,55.78-78.53c3.19-10.28,12.63-17.33,23.4-17.33&#10;&#9;&#9;&#9;C218.332,248.44,226.772,254.26,230.652,262.59z"/>
	</g>
	<g>
		<path style="fill:none;stroke:#000000;stroke-width:15;stroke-linecap:round;stroke-linejoin:round;stroke-miterlimit:10;" d="&#10;&#9;&#9;&#9;M38.712,246.93c-14.615-14.889-9.974-39.828,9.01-48.48"/>
		<path style="fill:none;stroke:#000000;stroke-width:15;stroke-linecap:round;stroke-linejoin:round;stroke-miterlimit:10;" d="&#10;&#9;&#9;&#9;M457.052,191.73c-7.05-26.74-15.24-50.87-25.61-72.17"/>
		<path style="fill:none;stroke:#000000;stroke-width:15;stroke-linecap:round;stroke-linejoin:round;stroke-miterlimit:10;" d="&#10;&#9;&#9;&#9;M51.932,135.81c1.76-41.91,22-128.31,158.88-128.31c106.58,0,166.01,28.81,203.01,81.8"/>
		<path style="fill:none;stroke:#000000;stroke-width:15;stroke-linecap:round;stroke-linejoin:round;stroke-miterlimit:10;" d="&#10;&#9;&#9;&#9;M346.332,75.26c0,0,19.84,19.84,22.34,59.52"/>
		<path style="fill:none;stroke:#000000;stroke-width:15;stroke-linecap:round;stroke-linejoin:round;stroke-miterlimit:10;" d="&#10;&#9;&#9;&#9;M390.612,215.31c9-16.17,26.26-27.1,46.08-27.1c29.11,0,52.71,23.59,52.71,52.7s-23.6,52.71-52.71,52.71&#10;&#9;&#9;&#9;c-14.25,0-27.17-5.65-36.66-14.84"/>
		<path style="fill:none;stroke:#000000;stroke-width:15;stroke-linecap:round;stroke-linejoin:round;stroke-miterlimit:10;" d="&#10;&#9;&#9;&#9;M373.902,198.45c19.081,8.705,23.532,33.675,9,48.48"/>
		<path style="fill:none;stroke:#000000;stroke-width:15;stroke-linecap:round;stroke-linejoin:round;stroke-miterlimit:10;" d="&#10;&#9;&#9;&#9;M57.062,374.9c-23.171-6.888-33.551-33.113-22.57-53.78c2.98-5.58,2.16-12.53-2.11-17.21c-6.14-6.74-9.87-15.73-9.81-25.59&#10;&#9;&#9;&#9;c0.13-20.83,17.58-37.41,38.41-37.41h5.81"/>
		<path style="fill:none;stroke:#000000;stroke-width:15;stroke-linecap:round;stroke-linejoin:round;stroke-miterlimit:10;" d="&#10;&#9;&#9;&#9;M354.812,240.91h5.83c20.82,0,38.28,16.58,38.41,37.41c0.06,9.86-3.67,18.85-9.82,25.59c-4.26,4.68-5.08,11.63-2.11,17.21&#10;&#9;&#9;&#9;c11.163,20.936,0.296,47.479-23.28,53.99c-7.48,2.07-11.98,9.47-10.59,17.11c4.281,23.349-14.009,45.363-38.67,44.43&#10;&#9;&#9;&#9;c-6.92-0.3-13,4.27-15.01,10.9c-5.12,16.939-21.581,28.328-39.54,26.61c-6.42-0.59-12.41,2.88-15.17,8.71&#10;&#9;&#9;&#9;c-6.03,12.75-19.01,21.57-34.05,21.57c-15.04,0-28.02-8.82-34.06-21.57c-1.76-3.72-4.83-6.48-8.49-7.83"/>
		<path style="fill:none;stroke:#000000;stroke-width:15;stroke-linecap:round;stroke-linejoin:round;stroke-miterlimit:10;" d="&#10;&#9;&#9;&#9;M70.412,199.67c-4.019,19.454-3.597,40.216,1.91,60.31"/>
		<path style="fill:none;stroke:#000000;stroke-width:15;stroke-linecap:round;stroke-linejoin:round;stroke-miterlimit:10;" d="&#10;&#9;&#9;&#9;M351.192,199.65c4.11,19.915,3.479,40.667-1.91,60.33"/>
		<path style="fill:none;stroke:#000000;stroke-width:15;stroke-linecap:round;stroke-linejoin:round;stroke-miterlimit:10;" d="&#10;&#9;&#9;&#9;M144.952,327.84c-5.71,0.81-9.43,0.81-9.43,0.81c-61.27,0-75.34-29.49-77.3-51.56c-0.93-10.57,9.3-18.58,19.45-15.46&#10;&#9;&#9;&#9;c19.23,5.92,40.71,3.16,57.85-8.27c31.63-21.09,54.04-10.43,63.18-3.87"/>
		<path style="fill:none;stroke:#000000;stroke-width:15;stroke-linecap:round;stroke-linejoin:round;stroke-miterlimit:10;" d="&#10;&#9;&#9;&#9;M221.472,250.58c8.04-6.32,31.18-19.53,64.63,2.78c17.14,11.43,38.61,14.19,57.84,8.27c10.15-3.12,20.39,4.89,19.45,15.46&#10;&#9;&#9;&#9;c-1.12,12.73-6.28,27.93-22.2,38.51"/>
		<path style="fill:none;stroke:#000000;stroke-width:15;stroke-linecap:round;stroke-linejoin:round;stroke-miterlimit:10;" d="&#10;&#9;&#9;&#9;M268.892,326.4c9.87,2.25,17.21,2.25,17.21,2.25c8.09,0,15.35-0.51,21.87-1.46"/>
		<path style="fill:none;stroke:#000000;stroke-width:15;stroke-linecap:round;stroke-linejoin:round;stroke-miterlimit:10;" d="&#10;&#9;&#9;&#9;M374.399,196.775c-5.23,7.565-15.965,8.715-22.648,2.396c-16.377-15.482-56.425-41.419-140.94-41.419&#10;&#9;&#9;&#9;S86.247,183.689,69.87,199.171c-6.684,6.319-17.418,5.169-22.648-2.396c-15.598-22.561-8.886-50.707,10.828-65.378&#10;&#9;&#9;&#9;c20.809-15.486,68.267-41.415,152.76-41.415s131.951,25.929,152.76,41.415C383.184,145.993,390.077,174.097,374.399,196.775z"/>
		<path style="fill:none;stroke:#000000;stroke-width:15;stroke-linecap:round;stroke-linejoin:round;stroke-miterlimit:10;" d="&#10;&#9;&#9;&#9;M40.642,402.86c6.79-18.24,20.59-33.84,39.74-42.43c11.437-5.13,24.103-5.965,35.71-2.67"/>
		<path style="fill:none;stroke:#000000;stroke-width:15;stroke-linecap:round;stroke-linejoin:round;stroke-miterlimit:10;" d="&#10;&#9;&#9;&#9;M173.072,446.67c1.23,21.21-10.52,41.94-31.05,51.15v0.01c-46.48,20.851-99.936-9.609-105.65-60.23"/>
		<path style="fill:none;stroke:#000000;stroke-width:15;stroke-linecap:round;stroke-linejoin:round;stroke-miterlimit:10;" d="&#10;&#9;&#9;&#9;M231.922,296.18l13.99-7.5c6.88-3.69,15.43-1.48,19.68,5.06c9.246,14.253,6.268,32.619-5.48,43.34"/>
		<path style="fill:none;stroke:#000000;stroke-width:15;stroke-linecap:round;stroke-linejoin:round;stroke-miterlimit:10;" d="&#10;&#9;&#9;&#9;M263.519,353.734v7.65c0,9.84-6.3,18.22-15.09,21.31c0.039,0.747,0.03,1.224,0.03,8.81c0,12.47-10.11,22.58-22.59,22.58v6.987&#10;&#9;&#9;&#9;c0,12.245-9.518,22.676-21.755,23.118c-9.534,0.344-17.809-5.227-21.445-13.325l-4.437,7.395&#10;&#9;&#9;&#9;c-7.819,13.031-21.902,21.005-37.099,21.005c-23.894,0-43.264-19.37-43.264-43.264c0-26.598,10.92-52.825,31.43-71.702&#10;&#9;&#9;&#9;c36.686-33.763,50.552-61.696,55.78-78.533c3.192-10.278,12.635-17.324,23.397-17.324c13.932,0,25.048,11.626,24.441,25.545&#10;&#9;&#9;&#9;c-1.43,32.786-5.786,38.683-9.739,49.748h10.34C250.088,323.734,263.519,337.166,263.519,353.734z"/>
		<path style="fill:none;stroke:#000000;stroke-width:15;stroke-linecap:round;stroke-linejoin:round;stroke-miterlimit:10;" d="&#10;&#9;&#9;&#9;M195.752,353.853h22.706c16.569,0,30,13.431,30,30"/>
		<path style="fill:none;stroke:#000000;stroke-width:15;stroke-linecap:round;stroke-linejoin:round;stroke-miterlimit:10;" d="&#10;&#9;&#9;&#9;M180.693,383.971h15.176c16.569,0,30,13.431,30,30"/>
		<path style="fill:none;stroke:#000000;stroke-width:15;stroke-linecap:round;stroke-linejoin:round;stroke-miterlimit:10;" d="&#10;&#9;&#9;&#9;M182.666,430.865c-1.268-2.823-1.974-5.953-1.974-9.248"/>
		
			<line style="fill:none;stroke:#000000;stroke-width:15;stroke-linecap:round;stroke-linejoin:round;stroke-miterlimit:10;" x1="223.179" y1="323.734" x2="210.81" y2="323.735"/>
		<g>
			<path style="fill:none;stroke:#000000;stroke-width:15;stroke-linecap:round;stroke-linejoin:round;stroke-miterlimit:10;" d="&#10;&#9;&#9;&#9;&#9;M163.053,210.794c0-7.602-6.163-13.765-13.765-13.765c-7.602,0-13.765,6.163-13.765,13.765"/>
			<path style="fill:none;stroke:#000000;stroke-width:15;stroke-linecap:round;stroke-linejoin:round;stroke-miterlimit:10;" d="&#10;&#9;&#9;&#9;&#9;M258.568,210.794c0-7.602,6.163-13.765,13.765-13.765c7.602,0,13.765,6.163,13.765,13.765"/>
		</g>
	</g>
</g>
<g>
</g>
<g>
</g>
<g>
</g>
<g>
</g>
<g>
</g>
<g>
</g>
<g>
</g>
<g>
</g>
<g>
</g>
<g>
</g>
<g>
</g>
<g>
</g>
<g>
</g>
<g>
</g>
<g>
</g>
</svg>