<svg id="outlinecolor" height="512" viewBox="0 0 80 80" width="512" xmlns="http://www.w3.org/2000/svg"><path d="m52.36 55.62s1 5.51-5.97 8.97v4.17c-1.22-.79-3.15-1.15-6.4-1.16h-.07v-6.4a.735.735 0 0 1 .08.02 36.863 36.863 0 0 0 12.36-5.6z" fill="#efe8d3"/><path d="m39.92 61.22v6.38c-3.14.01-5.05.35-6.27 1.07l-.04-.06v-4.02c-6.97-3.46-5.97-8.97-5.97-8.97a36.824 36.824 0 0 0 12.28 5.58z" fill="#efe8d3"/><path d="m58.91 44.06a12.138 12.138 0 0 1 -.07 1.36c0 .01-.01.02 0 .03a3.4 3.4 0 0 0 -.06.46c-.62 4.2-3.28 7.37-6.42 9.71a36.863 36.863 0 0 1 -12.36 5.6.735.735 0 0 0 -.08-.02 36.824 36.824 0 0 1 -12.28-5.58c-3.14-2.34-5.8-5.51-6.42-9.71a4.019 4.019 0 0 0 -.06-.5v-.01a11.782 11.782 0 0 1 -.07-1.34c0-6.01 2.29-6.15 2.29-12.53l.09-.03a9.339 9.339 0 0 0 2.07 3.63h.02c-.02.25-.02.51-.02.77v1.13a5.481 5.481 0 0 0 2.46 4.66 5.369 5.369 0 0 0 -.08 2.59c2.64-1.5 3.36.5 7.02.73a6.624 6.624 0 0 0 2.76-.44v.01c.05 4.67 4.62 4.48 4.58-.01a6.7 6.7 0 0 0 2.77.44c3.67-.23 4.39-2.23 7.03-.73a5.332 5.332 0 0 0 -.08-2.58 5.481 5.481 0 0 0 2.48-4.67v-1.13c0-.26 0-.52-.02-.77h.02a9.346 9.346 0 0 0 2.07-3.62l.07.02c0 6.38 2.29 6.52 2.29 12.53z" fill="#f2f2f2"/><path d="m54.47 35.13-14.455-.6-14.455.6c-.645 7.742 2.832 16 14.455 16s15.1-8.258 14.455-16z" fill="#e6e6e6"/><path d="m52 41.7a5.332 5.332 0 0 1 .08 2.58c-2.64-1.5-3.36.5-7.03.73a6.7 6.7 0 0 1 -2.77-.44 7.94 7.94 0 0 1 -2.28-1.31 7.884 7.884 0 0 1 -2.3 1.31 6.624 6.624 0 0 1 -2.76.44c-3.66-.23-4.38-2.23-7.02-.73a5.369 5.369 0 0 1 .08-2.59c.52-1.78 2.11-3.14 4.89-3.2a10.952 10.952 0 0 1 4.63.92c.58 1.48 2.65 2.23 4.94.01a10.992 10.992 0 0 1 4.65-.93c2.78.06 4.37 1.42 4.89 3.21z" fill="#f2f2f2"/><path d="m63.17 36.1a9.049 9.049 0 0 0 .9-2.97c.59-3.07 4.82-3.68 6.47-1.21s2.55 6.98-.91 12.72a7.1 7.1 0 0 1 -7.07-2.4l-1.53-3.09c-.8-1.62.35-3.49 2.13-3.05z" fill="#e1384c"/><path d="m69.63 44.64c.91 1.65 1.76 5.61-1.73 7.12a5.064 5.064 0 0 1 -.66.24c-3.46 1.03-7.71-1.31-8.36-4.49a5.557 5.557 0 0 1 -.1-1.6c.02-.15.04-.31.06-.46-.01-.01 0-.02 0-.03a3.757 3.757 0 0 1 3.72-3.18 7.1 7.1 0 0 0 7.07 2.4z" fill="#efe8d3"/><path d="m67.9 51.76v.01s-.23 9.08-6.07 13.48a55.719 55.719 0 0 1 1.35 6.75h-14.79a4.978 4.978 0 0 0 -2-3.24v-4.17c6.97-3.46 5.97-8.97 5.97-8.97 3.14-2.34 5.8-5.51 6.42-9.71a5.557 5.557 0 0 0 .1 1.6c.65 3.18 4.9 5.52 8.36 4.49a5.064 5.064 0 0 0 .66-.24z" fill="#e1384c"/><path d="m64.59 8.22a3.505 3.505 0 1 1 0 7.01 3.406 3.406 0 0 1 -1.74-.47h-.01a3.5 3.5 0 0 1 -1.75-3.03 3.3 3.3 0 0 1 .18-1.1 3.5 3.5 0 0 1 3.32-2.41z" fill="#efe8d3"/><path d="m24.33 23.47-.05-.02a15.534 15.534 0 0 1 16-15.45c13.15 0 12.85 3.73 20.99 2.63a3.3 3.3 0 0 0 -.18 1.1 3.5 3.5 0 0 0 1.75 3.03c-6.78 1.34-7.84 6.58-7.84 6.58a15.686 15.686 0 0 1 .68 2.1z" fill="#e1384c"/><path d="m56.86 26.93a9.909 9.909 0 0 1 -.31 4.58 9.346 9.346 0 0 1 -2.07 3.62h-.02c-.37-10.78-8.73-7.21-14.45-7.21s-14.09-3.67-14.45 7.21h-.02a9.339 9.339 0 0 1 -2.07-3.63 9.865 9.865 0 0 1 -.31-4.57 10.226 10.226 0 0 1 1.17-3.46c2.39-4.24 7.83-5.35 15.68-5.35l5.71.27c4.79.54 8.19 1.95 9.96 5.05v.01a10.269 10.269 0 0 1 1.18 3.48z" fill="#efe8d3"/><path d="m37.52 39.41a10.952 10.952 0 0 0 -4.63-.92c-2.78.06-4.37 1.42-4.89 3.2a5.481 5.481 0 0 1 -2.46-4.66v-1.13c0-.26 0-.52.02-.77.36-10.88 8.73-7.21 14.45-7.21s14.08-3.57 14.45 7.21c.02.25.02.51.02.77v1.13a5.481 5.481 0 0 1 -2.48 4.67c-.52-1.79-2.11-3.15-4.89-3.21a10.992 10.992 0 0 0 -4.65.93c-2.29 2.22-4.36 1.47-4.94-.01z" fill="#f7bcbc"/><path d="m48.39 72h-16.87a4.878 4.878 0 0 1 2.13-3.33c1.22-.72 3.13-1.06 6.27-1.07h.07c3.25.01 5.18.37 6.4 1.16a4.978 4.978 0 0 1 2 3.24z" fill="#ffbf31"/><path d="m42.28 44.57c.04 4.49-4.53 4.68-4.58.01v-.01a7.884 7.884 0 0 0 2.3-1.31 7.94 7.94 0 0 0 2.28 1.31z" fill="#e1384c"/><path d="m33.61 68.61.04.06a4.878 4.878 0 0 0 -2.13 3.33h-14.68a53.4 53.4 0 0 1 1.35-6.75c-5.84-4.4-6.07-13.48-6.07-13.48.2.08.41.16.64.23 3.46 1.03 7.72-1.31 8.36-4.49a5.537 5.537 0 0 0 .1-1.6c.62 4.2 3.28 7.37 6.42 9.71 0 0-1 5.51 5.97 8.97z" fill="#e1384c"/><path d="m21.22 45.91a5.537 5.537 0 0 1 -.1 1.6c-.64 3.18-4.9 5.52-8.36 4.49-.23-.07-.44-.15-.64-.23-3.51-1.5-2.66-5.47-1.75-7.13a7.093 7.093 0 0 0 7.07-2.4 3.731 3.731 0 0 1 3.72 3.16v.01c.02.17.04.33.06.5z" fill="#efe8d3"/><path d="m16.83 36.1h.01c1.78-.45 2.93 1.43 2.13 3.05-1.04 2.12-1.53 3.09-1.53 3.09a7.093 7.093 0 0 1 -7.07 2.4c-3.46-5.74-2.56-10.25-.91-12.72s5.89-1.86 6.48 1.21a8.935 8.935 0 0 0 .89 2.97z" fill="#e1384c"/><path d="m43.43 38.668a3.441 3.441 0 0 1 -6.86 0c0-1.746 1.535-4.008 3.43-4.008s3.43 2.262 3.43 4.008z" fill="#f99898"/><path d="m9.927 17.916a1.657 1.657 0 1 0 -1.657-1.657 1.657 1.657 0 0 0 1.657 1.657zm57.284 4.884a1.568 1.568 0 1 0 1.568-1.568 1.568 1.568 0 0 0 -1.568 1.568zm-48.211-4.884a1.657 1.657 0 1 0 -1.656-1.657 1.656 1.656 0 0 0 1.656 1.657zm-4.534-4.534a1.657 1.657 0 1 0 -1.656-1.657 1.657 1.657 0 0 0 1.651 1.657zm0 9.068a1.657 1.657 0 1 0 -1.656-1.656 1.657 1.657 0 0 0 1.651 1.656zm45.934.35a1.568 1.568 0 1 0 1.567-1.568 1.567 1.567 0 0 0 -1.567 1.568zm4.975-4.976a1.568 1.568 0 1 0 1.563 1.576 1.566 1.566 0 0 0 -1.568-1.572zm-.776-8.309a2.207 2.207 0 1 1 -2.207 2.206 2.211 2.211 0 0 1 2.202-2.202zm-9.38 21.845a6.385 6.385 0 0 0 -4.324-4.812 11.49 11.49 0 0 0 -3.452-.5 35.657 35.657 0 0 0 -3.921.292 32.846 32.846 0 0 1 -3.506.276 32.123 32.123 0 0 1 -3.545-.29 34.772 34.772 0 0 0 -3.966-.307 11.329 11.329 0 0 0 -3.056.385 6.545 6.545 0 0 0 -4.638 4.95 8.262 8.262 0 0 1 -.484-2.766 8.855 8.855 0 0 1 .121-1.448 8.425 8.425 0 0 1 1.524-3.813 7.156 7.156 0 0 1 2.08-1.828 14.09 14.09 0 0 1 4.916-1.617 44.082 44.082 0 0 1 7.048-.464 1.3 1.3 0 1 0 0-2.6c-4.905.007-8.971.4-12.149 1.848a11.447 11.447 0 0 0 -1.727.993 14.615 14.615 0 0 1 3.15-5.717 14.283 14.283 0 0 1 10.987-4.642 36.4 36.4 0 0 1 10.979 1.363c1.181.342 2.223.7 3.369.986a15.623 15.623 0 0 0 3.874.48q.628 0 1.324-.049a4.751 4.751 0 0 0 .612 2.014 11 11 0 0 0 -5.093 3.675c-.15.2-.285.4-.409.59-.289-.461-.58-.877-.86-1.239a11.86 11.86 0 0 0 -1.973-2.067 1.3 1.3 0 0 0 -1.58 2.064 9.573 9.573 0 0 1 1.4 1.463 20.989 20.989 0 0 0 -6.049-1.48 1.3 1.3 0 1 0 -.288 2.584 14.739 14.739 0 0 1 6.977 2.2 6.769 6.769 0 0 1 1.94 2.116 9.1 9.1 0 0 1 .714 7.364zm-15.231 15.348c-.344 0-.8-.517-.9-1.327a5.481 5.481 0 0 0 .912-.514 2.926 2.926 0 0 0 .91.514c-.125.729-.461 1.327-.922 1.327zm-10.835-4.239c.1-1.331 1.91-2.682 3.953-2.682a9.99 9.99 0 0 1 2.8.415c.292.086.518.168.7.237a3.424 3.424 0 0 0 2.815 1.661c-.474.227-.841.64-1.493.964a5.948 5.948 0 0 1 -2.6.66c-2.455-.002-3.95-1.697-6.175-1.255zm15.519 1.253a5.965 5.965 0 0 1 -2.739-.73c-.706-.375-1.112-.8-1.539-.967a5.814 5.814 0 0 0 2.756-1.488 9.967 9.967 0 0 1 3.741-.75c2.832 0 3.819 1.512 3.953 2.682a4.051 4.051 0 0 0 -.567-.042 4.794 4.794 0 0 0 -1.427.235 12.911 12.911 0 0 1 -4.178 1.06zm2.219-6.535a12.214 12.214 0 0 0 -5 1.07c-.479.343-1.233 1.261-2.268 1.261-1.073 0-1.139-1.018-.773-1.576a2.75 2.75 0 0 1 .764-.8 1.3 1.3 0 1 0 -1.481-2.142 4.963 4.963 0 0 0 -1.572 1.7 4.028 4.028 0 0 0 -.355.892 14.407 14.407 0 0 0 -3.345-.4 6.559 6.559 0 0 0 -5.209 2.384 3.327 3.327 0 0 1 -.811-2.546v-1.13a13.731 13.731 0 0 1 .495-3.972 4.668 4.668 0 0 1 4.571-3.282 6.367 6.367 0 0 0 -2.822 2.234 1.3 1.3 0 1 0 2.115 1.507 3.774 3.774 0 0 1 2.507-1.549 1.767 1.767 0 0 1 1.952.98 1.318 1.318 0 0 0 1.661.788 1.3 1.3 0 0 0 .789-1.661 4 4 0 0 0 -1.518-1.981 30.554 30.554 0 0 0 3.419.258 33.716 33.716 0 0 0 3.672-.279 4 4 0 0 0 -1.544 2 1.3 1.3 0 1 0 2.449.873 1.379 1.379 0 0 1 .549-.723 1.915 1.915 0 0 1 1.064-.273 3.058 3.058 0 0 1 .336.018 3.6 3.6 0 0 1 2.508 1.549 1.3 1.3 0 1 0 2.116-1.511 6.4 6.4 0 0 0 -2.649-2.166 3.965 3.965 0 0 1 4.044 2.88 13.212 13.212 0 0 1 .625 4.31v1.132a4.252 4.252 0 0 1 -.491 2.054 4.1 4.1 0 0 1 -.332.508c-.664-1.116-2.57-2.407-5.466-2.407zm-19.509 8.272a1.151 1.151 0 0 0 1.178-.052 2.283 2.283 0 0 1 1.16-.38c1.61 0 3 1.3 5.605 1.3a7.655 7.655 0 0 0 1.286-.117 4.807 4.807 0 0 0 .779 1.732 3.16 3.16 0 0 0 5.207 0 4.708 4.708 0 0 0 .786-1.737 7.586 7.586 0 0 0 1.289.118c2.775 0 4.243-1.3 5.605-1.3a2.277 2.277 0 0 1 1.159.38 1.263 1.263 0 0 0 1.179.052c.736-.363 1.139-1.108.81-3.22a6.715 6.715 0 0 0 2.355-5.211v-1.138c.351 1.494.826 2.574 1.172 3.652a13.5 13.5 0 0 1 .661 4.522c0 8.1-7.166 12.855-17.615 15.826-10.512-2.773-17.611-7.773-17.611-15.826a14.838 14.838 0 0 1 .326-3.31c.286-1.289.741-2.267 1.18-3.645.127-.4.245-.831.351-1.3v1.22a6.71 6.71 0 0 0 2.333 5.191c-.338 1.358-.144 2.622.805 3.243zm23.418 12.741a6.718 6.718 0 0 1 -.517 1.251 9.765 9.765 0 0 1 -4.476 3.971 1.3 1.3 0 0 0 -.722 1.165v2.222c-.221-.06-.444-.118-.681-.166a19.656 19.656 0 0 0 -3.189-.327v-4.062a40.435 40.435 0 0 0 8.885-3.621c.231-.133.466-.29.7-.433zm-16.614 5.224a9.77 9.77 0 0 1 -4.476-3.971 6.69 6.69 0 0 1 -.512-1.238 36.421 36.421 0 0 0 4.306 2.19 41.972 41.972 0 0 0 5.113 1.8v4.113a21.07 21.07 0 0 0 -2.7.247c-.358.06-.687.138-1.009.221v-2.2a1.3 1.3 0 0 0 -.722-1.162zm-21.752-31.734a2.5 2.5 0 0 1 1.45.452 1.928 1.928 0 0 1 .775 1.237 18.727 18.727 0 0 0 .509 2.081 6.252 6.252 0 0 0 -1.041.846 1.3 1.3 0 0 0 1.857 1.821 2.7 2.7 0 0 1 1.155-.772.583.583 0 0 1 .6.14 1 1 0 0 1 .067 1.077l-1.452 2.945a5.5 5.5 0 0 1 -5.15 1.947 13.133 13.133 0 0 1 -1.904-6.414 7.328 7.328 0 0 1 1.244-4.409 2.231 2.231 0 0 1 1.89-.951zm-1.1 17.864a3.1 3.1 0 0 1 -.46-1.73 5.555 5.555 0 0 1 .308-1.746c.249.021.527.037.836.037a8 8 0 0 0 5.947-2.515 3.247 3.247 0 0 1 1.88 3.646 4.259 4.259 0 0 1 -1.858 2.564 6.223 6.223 0 0 1 -3.493 1.134 4.751 4.751 0 0 1 -1.36-.192 3.072 3.072 0 0 1 -1.804-1.198zm35.166 21.139h-13.095c.893-1.139 1.874-1.8 6.551-1.8 4.462.007 5.672.66 6.544 1.8zm11.113 2.607h5.565a1.3 1.3 0 0 0 1.286-1.486c-.417-2.889-.9-5.018-1.173-6.109a17.361 17.361 0 0 0 5.016-8.5 25.436 25.436 0 0 0 .844-4.653c2.658-1.608 3.126-4.492 1.935-7.857a15.67 15.67 0 0 0 2.214-7.645 10.5 10.5 0 0 0 -1.68-5.851 4.652 4.652 0 0 0 -1.82-1.599 5.139 5.139 0 0 0 -5.21.441 4.544 4.544 0 0 0 -1.8 2.848 14.933 14.933 0 0 1 -.462 1.87 3.083 3.083 0 0 0 -2.009 1.012 3.445 3.445 0 0 0 -.846 2.287 3.766 3.766 0 0 0 .393 1.664c.315.638.573 1.161.787 1.6a5.047 5.047 0 0 0 -.586.3 49.029 49.029 0 0 0 -1.479-5.294 17.045 17.045 0 0 1 -.677-4.848c.452-4.177.292-6.092-1.007-8.483a16.548 16.548 0 0 0 -.529-1.711 7.047 7.047 0 0 1 1.137-2.068 8.828 8.828 0 0 1 5.178-3.077 4.811 4.811 0 1 0 -2.284-6.731 18.534 18.534 0 0 1 -1.907.119 12.945 12.945 0 0 1 -3.249-.4c-1.491-.365-3.051-.976-5.335-1.5a42.523 42.523 0 0 0 -9.638-.929 16.906 16.906 0 0 0 -12.926 5.51 17.1 17.1 0 0 0 -4.358 11.037 11.92 11.92 0 0 0 -1.115 3.475 11.407 11.407 0 0 0 -.156 1.872 10.932 10.932 0 0 0 .377 2.835 15.43 15.43 0 0 1 -.35 3.634 31.891 31.891 0 0 1 -1.174 3.673 15.145 15.145 0 0 0 -.645 2.878 5.035 5.035 0 0 0 -.581-.3c.215-.435.472-.958.787-1.6a3.757 3.757 0 0 0 .394-1.664 3.45 3.45 0 0 0 -.846-2.287 3.083 3.083 0 0 0 -2.01-1.012 15.068 15.068 0 0 1 -.462-1.87 4.54 4.54 0 0 0 -1.8-2.848 5.139 5.139 0 0 0 -5.21-.441 4.659 4.659 0 0 0 -1.822 1.608 10.518 10.518 0 0 0 -1.68 5.85 15.694 15.694 0 0 0 2.215 7.65c-1.447 2.576-.862 6.346 1.951 7.866a25.581 25.581 0 0 0 .844 4.644 1.356 1.356 0 0 0 1.622.836 1.253 1.253 0 0 0 .882-1.535 22.993 22.993 0 0 1 -.626-3.025 7.675 7.675 0 0 0 .906.062 8.8 8.8 0 0 0 4.988-1.607 7.9 7.9 0 0 0 1.765-1.7 15.46 15.46 0 0 0 1.78 2.777 20.426 20.426 0 0 0 3.266 3.191c0 3.671 2.462 7.1 6.015 9.153v2.678a5.315 5.315 0 0 0 -1.749 2.66h-12.2c.23-1.377.463-2.515.653-3.362.128-.567.231-1.006.313-1.3.2-.7.509-1.163-.351-1.832a16.036 16.036 0 0 1 -3.16-3.673s-.857-1.133-1.835-.533c-.938.571-.392 1.806-.392 1.806a14.811 14.811 0 0 0 3.139 3.9c-.273 1.091-.756 3.22-1.173 6.109a1.3 1.3 0 0 0 1.286 1.485h35.821s1.446.006 1.446-1.3-1.446-1.3-1.446-1.3h-3.309a7.155 7.155 0 0 0 -.632-1.368 5.249 5.249 0 0 0 -1.032-1.2v-2.767c1.942-1.1 6.015-4.259 6.015-9.136a20.236 20.236 0 0 0 3.271-3.208 15.437 15.437 0 0 0 1.781-2.778c1.055 1.863 4.4 3.6 7.676 3.241a23.179 23.179 0 0 1 -.7 3.277 14.147 14.147 0 0 1 -4.687 7.449 1.3 1.3 0 0 0 -.467 1.4l.006.021a50.467 50.467 0 0 1 1.077 5.069h-4.046a1.3 1.3 0 0 0 0 2.6zm7.894-22.354a6.294 6.294 0 0 1 -3.493-1.134 4.424 4.424 0 0 1 -1.9-4.178 2.336 2.336 0 0 1 1.922-2.034 8 8 0 0 0 5.952 2.512c.309 0 .587-.016.835-.037a5.7 5.7 0 0 1 .308 1.746c0 1.87-1.37 3.079-3.624 3.126zm-3.242-13.451c.315-.4 1.123-.032 1.753.632a1.3 1.3 0 1 0 1.856-1.821 6.212 6.212 0 0 0 -1.041-.846 18.918 18.918 0 0 0 .51-2.081 1.928 1.928 0 0 1 .775-1.237 2.487 2.487 0 0 1 1.45-.452 2.458 2.458 0 0 1 1.08.243 2.057 2.057 0 0 1 .81.708 7.921 7.921 0 0 1 1.242 4.409 13.118 13.118 0 0 1 -1.9 6.415 6.116 6.116 0 0 1 -5.149-1.948l-1.451-2.945a.943.943 0 0 1 .065-1.077zm3.105-12.851a1.568 1.568 0 1 0 1.568 1.568 1.567 1.567 0 0 0 -1.568-1.568zm-31.762 8.534a1.35 1.35 0 1 0 1.35 1.35 1.35 1.35 0 0 0 -1.35-1.35zm12.805 0a1.35 1.35 0 1 0 1.35 1.35 1.349 1.349 0 0 0 -1.35-1.35z" fill="#003041"/></svg>