<svg version="1.1" id="Layer_1" xmlns="http://www.w3.org/2000/svg" xmlns:xlink="http://www.w3.org/1999/xlink" x="0px" y="0px" viewBox="0 0 511.962 511.962" style="enable-background:new 0 0 511.962 511.962;" xml:space="preserve">
<g>
	<g>
		<path style="fill:#F3F5FC;" d="M504.461,475.326c0,16.09-13.04,29.13-29.13,29.13h-121.4l-16.26-7.13l-13.97,7.13h-135.42&#10;&#9;&#9;&#9;l-13.18-8.239l-5.17-3.23l-11.88,11.47h-121.4c-16.09,0-29.13-13.04-29.13-29.13c0-5.5,1.55-10.78,4.33-15.29&#10;&#9;&#9;&#9;c2.78-4.51,6.79-8.27,11.71-10.74c22.45-11.26,68.09-25.52,134.55-5.069l16.99-4.851l84.52-24.149l94.25,29&#10;&#9;&#9;&#9;c66.46-20.45,112.1-6.19,134.55,5.069C498.261,454.236,504.461,464.317,504.461,475.326z"/>
		<path style="fill:#E8ECF9;" d="M175.101,439.376v56.841l-5.17-3.23l-11.88,11.47h-121.4c-16.09,0-29.13-13.04-29.13-29.13&#10;&#9;&#9;&#9;c0-5.5,1.55-10.78,4.33-15.29c2.78-4.51,6.79-8.27,11.71-10.74c22.45-11.26,68.09-25.52,134.55-5.069L175.101,439.376z"/>
		<path style="fill:#FD5C6F;" d="M443.361,284.076c-17.14,9.28-40.58,19.09-68.29,23.26c-7.4,1.12-12.85,7.5-12.77,14.971&#10;&#9;&#9;&#9;c0.25,21.09-8.43,46.62-8.43,46.62h-195.76c0,0-8.66-25.561-8.43-46.62c0.09-7.471-5.37-13.851-12.76-14.96&#10;&#9;&#9;&#9;c-27.71-4.181-51.16-13.99-68.3-23.271l2.19-28.12l17.85-18.64c45.84,12.01,84.62,12.27,113.27,9c6.43-3.55,13.32-6.45,20.56-8.59&#10;&#9;&#9;&#9;c9.47-2.811,19.56-4.33,30.13-4.33h6.74c18.65,0,35.84,4.74,50.69,12.92c28.65,3.27,67.43,3.01,113.27-9l17.27,21.3&#10;&#9;&#9;&#9;L443.361,284.076z"/>
		<path style="fill:#F6334C;" d="M198.971,362.727v6.2h-40.86c0,0-8.66-25.561-8.43-46.62c0.09-7.471-5.37-13.851-12.76-14.96&#10;&#9;&#9;&#9;c-27.71-4.181-51.16-13.99-68.3-23.271l2.19-28.12l17.85-18.64c45.84,12.01,84.62,12.27,113.27,9c6.43-3.55,13.32-6.45,20.56-8.59&#10;&#9;&#9;&#9;l8.63,11.069C231.121,248.796,177.721,285.307,198.971,362.727z"/>
		<path style="fill:#FFD4BD;" d="M469.271,255.347c0,7.739-3.82,15.21-10.62,19.64c-4.3,2.8-9.43,5.92-15.29,9.09l-20.04-46.76&#10;&#9;&#9;&#9;c5.07-1.33,10.22-2.8,15.45-4.42c11.71-3.63,24.26,2.32,28.81,13.71C468.721,249.456,469.271,252.416,469.271,255.347z"/>
		<path style="fill:#FFBF9D;" d="M88.661,237.317l-20.04,46.76c-5.86-3.17-10.99-6.29-15.29-9.09c-6.8-4.43-10.62-11.9-10.62-19.64&#10;&#9;&#9;&#9;c0-2.931,0.55-5.891,1.69-8.74c4.55-11.39,17.1-17.34,28.81-13.71C78.441,234.517,83.591,235.986,88.661,237.317z"/>
		<path style="fill:#F3F5FC;" d="M399.041,174.756c0.94,56.021-60.94,90.79-99.36,127.011c-3.55,3.35-7.8,5.729-12.35,7.02&#10;&#9;&#9;&#9;l-167.17-64.78c-25.53-51.869,8.22-90.26,8.22-90.26l60.54-16.22l157.64-42.25C346.561,95.277,397.991,112.677,399.041,174.756z"/>
		<path style="fill:#E8ECF9;" d="M287.331,308.786c-4.85,1.38-10.05,1.54-15.11,0.34c-51.39-12.159-122.36-11.33-149.55-60.319&#10;&#9;&#9;&#9;c-30.14-54.28,5.71-95.061,5.71-95.061l60.54-16.22c23.25,50.06,52.27,114.74,52.27,114.74S282.481,273.376,287.331,308.786z"/>
		<path style="fill:#FFD4BD;" d="M262.801,219.057c-12.39,3.319-24.5,5.63-35.96,6.77c-10.3,1.03-20.08,1.13-29.08,0.19&#10;&#9;&#9;&#9;l-52.53-66.061l-0.01,0.011c2.74-11.37,8.73-22.49,17.34-32.57c14.94-17.49,37.75-31.9,65.17-39.25&#10;&#9;&#9;&#9;c56.23-15.07,110.54,5.28,121.3,45.45C359.801,173.756,319.041,203.986,262.801,219.057z"/>
		<path style="fill:#FFBF9D;" d="M226.841,225.826c-40.56,4.07-73.05-6.35-81.45-37.67c-5.51-20.59,1.48-42.38,17.17-60.76&#10;&#9;&#9;&#9;c8.67,5.14,17.59,10.58,17.59,10.58s-12.78,61.689,37.78,82.859C221.821,222.467,224.751,224.137,226.841,225.826z"/>
		<path style="fill:#FD5C6F;" d="M342.661,80.736l-175.19,40.74l-44.94,10.45c-2.47-38.32-13.64-50.91-34.03-68.83&#10;&#9;&#9;&#9;c-9.07-7.98-12.39-17.49-13.27-25.591c-1.11-10.119,1.57-18.05,1.57-18.05s24.29,32.471,131.44-4.04&#10;&#9;&#9;&#9;C315.381-21.083,342.661,80.736,342.661,80.736z"/>
		<path style="fill:#F6334C;" d="M167.471,121.477l-44.94,10.45c-2.47-38.32-13.64-50.91-34.03-68.83&#10;&#9;&#9;&#9;c-9.07-7.98-12.39-17.49-13.27-25.591l18.34,6.45c0,0,69.8,9.46,78.65,54.05C173.991,106.927,171.921,114.727,167.471,121.477z"/>
		<path style="fill:#E8ECF9;" d="M339.961,109.876c-20.25-3.62-55.69-5.699-104.44,7.36c-22.28,5.97-40.57,13.29-55.37,20.74&#10;&#9;&#9;&#9;l-58.18,25.13v0.02c-1.62-1.38-2.99-3.14-3.95-5.25c-5.1-11.22-3.37-24.069,3.88-33.449l25.72-9.65l23.26-21.9&#10;&#9;&#9;&#9;c14.84-7.029,32.44-13.79,52.95-19.279c45.79-12.271,82.22-11.811,105.01-9.181c15.29,1.771,27.27,13.95,28.76,29.271&#10;&#9;&#9;&#9;C358.561,103.597,349.771,111.626,339.961,109.876z"/>
		<path style="fill:#D7DDF5;" d="M180.151,137.977c-17.58,8.859-30.22,17.91-38.76,25.109c-2.87,2.42-6.31,3.561-9.71,3.561&#10;&#9;&#9;&#9;c-5.61,0-11.09-3.12-13.66-8.771c-6.37-14.01-2.08-30.55,10.27-39.729c10.17-7.55,24.28-16.61,42.59-25.271h0.01&#10;&#9;&#9;&#9;C170.891,92.876,155.281,121.817,180.151,137.977z"/>
		<path style="fill:#F3F5FC;" d="M93.571,43.956l-10.71,1.971l-3.06,6.39c-11.47,2.12-22.82-4.91-25.89-16.37&#10;&#9;&#9;&#9;c-2.8-10.45,2.2-21.16,11.44-25.92c1.42-0.73,2.93-1.32,4.53-1.75c12.05-3.23,24.43,3.93,27.66,15.979&#10;&#9;&#9;&#9;C99.441,31.357,97.741,38.567,93.571,43.956z"/>
		<path style="fill:#E8ECF9;" d="M93.571,43.956c-2.92,3.761-7.05,6.63-12,7.96c-12.05,3.23-24.43-3.92-27.66-15.97&#10;&#9;&#9;&#9;c-2.8-10.45,2.2-21.16,11.44-25.92C65.261,19.677,68.341,39.196,93.571,43.956z"/>
		<path style="fill:#E8ECF9;" d="M350.321,214.017c-8.77,13.41-25.18,24.689-55.81,22.84c-11.72-0.71-19.86-6.44-25.29-12.61&#10;&#9;&#9;&#9;c-1.36-1.55-3.48-2.18-5.47-1.649c-1,0.27-1.87,0.8-2.55,1.52c-0.67,0.72-1.15,1.63-1.36,2.64c-1.62,8.061-5.8,17.101-15.6,23.57&#10;&#9;&#9;&#9;c-1.02,0.68-2.04,1.33-3.05,1.94l-14.35,1.489l-23.64-19.239l3.72-19.511c0-0.01,0-0.01,0-0.01&#10;&#9;&#9;&#9;c13.92-26.33,34.22-29.189,42.9-29.09c2.69,0.03,5.34-0.68,7.65-2.05c7.6-4.5,27.15-12.37,53.04,4.6&#10;&#9;&#9;&#9;c7.52,4.931,15.68,4.971,23.17,2.86C347.101,187.546,357.961,202.347,350.321,214.017z"/>
		<path style="fill:#D7DDF5;" d="M241.191,252.267c-24.12,14.84-42.97,13.12-56.7,6.189c-12.45-6.29-10.45-24.54,3.07-27.979&#10;&#9;&#9;&#9;c7.53-1.931,14.58-6.03,18.63-14.061c0.24-0.479,0.48-0.949,0.73-1.41C207.001,215.496,211.841,245.986,241.191,252.267z"/>
		<path style="fill:#FD5C6F;" d="M361.401,474.336h-45.17c0,0-22.88-5.72-48.7-37.09c-5.96-7.26-17.12-7.26-23.08,0&#10;&#9;&#9;&#9;c-25.82,31.37-48.7,37.09-48.7,37.09h-45.17c-0.46-1.08-0.91-2.159-1.33-3.239v-0.021l-0.39-19.2l-6.49-11.96&#10;&#9;&#9;&#9;c-2.21-36.529,15.74-63.46,15.74-63.46h195.76C353.871,376.456,383.991,421.637,361.401,474.336z"/>
		<path style="fill:#F6334C;" d="M158.111,376.456h40.86v4.7c0,0-31.02,31.61-22.52,93.18h-25.87&#10;&#9;&#9;&#9;C127.991,421.637,158.111,376.456,158.111,376.456z"/>
		<path style="fill:#5972A5;" d="M203.281,489.397v0.06c0,8.28-6.71,15-15,15h-15.16l-6-1.319l-13.02-24.7l21-19.09&#10;&#9;&#9;&#9;c7.55,0.47,14.34,3.729,19.36,8.75C199.911,473.546,203.281,481.086,203.281,489.397z"/>
		<path style="fill:#3B5A9B;" d="M173.121,504.456h-15.07c-8.29,0-15-6.72-15-15v-0.06c0-16.63,13.48-30.12,30.12-30.12&#10;&#9;&#9;&#9;c0.65,0,1.29,0.02,1.93,0.07C175.101,459.347,155.541,484.637,173.121,504.456z"/>
		<path style="fill:#5972A5;" d="M353.932,504.457h-30.235c-8.284,0-15-6.716-15-15v-0.059c0-16.634,13.484-30.118,30.118-30.118h0&#10;&#9;&#9;&#9;c16.634,0,30.118,13.484,30.118,30.118v0.059C368.932,497.741,362.217,504.457,353.932,504.457z"/>
		<path style="fill:#5972A5;" d="M376.461,368.927c0,4.159-1.69,7.92-4.41,10.649c-2.72,2.73-6.49,4.41-10.65,4.41h-164.85&#10;&#9;&#9;&#9;l-22.28-4.49l-20.34,4.49h-3.35c-8.32,0-15.06-6.74-15.06-15.06c0-4.16,1.69-7.921,4.41-10.65c2.72-2.73,6.49-4.41,10.65-4.41&#10;&#9;&#9;&#9;h3.31l26.5,4.69l16.43-4.69h164.58C369.721,353.866,376.461,360.607,376.461,368.927z"/>
		<path style="fill:#3B5A9B;" d="M196.551,383.986h-45.97c-8.32,0-15.06-6.74-15.06-15.06c0-4.16,1.69-7.921,4.41-10.65&#10;&#9;&#9;&#9;c2.72-2.73,6.49-4.41,10.65-4.41h46.24C196.821,353.866,184.621,367.796,196.551,383.986z"/>
		<path style="fill:#F9EE80;" d="M271.109,399.045h-30.235c-8.284,0-15-6.716-15-15V353.81c0-8.284,6.716-15,15-15h30.235&#10;&#9;&#9;&#9;c8.284,0,15,6.716,15,15v30.235C286.109,392.33,279.393,399.045,271.109,399.045z"/>
		<circle style="fill:#F3F5FC;" cx="399.05" cy="22.575" r="15.059"/>
		<circle style="fill:#F3F5FC;" cx="481.874" cy="52.692" r="15.059"/>
		<circle style="fill:#F3F5FC;" cx="444.226" cy="127.986" r="15.059"/>
		<circle style="fill:#F3F5FC;" cx="489.403" cy="188.222" r="15.059"/>
		<circle style="fill:#F3F5FC;" cx="421.638" cy="391.516" r="15.059"/>
		<circle style="fill:#F3F5FC;" cx="481.874" cy="323.751" r="15.059"/>
		<circle style="fill:#E8ECF9;" cx="67.756" cy="127.986" r="15.059"/>
		<circle style="fill:#E8ECF9;" cx="22.579" cy="188.222" r="15.059"/>
		<circle style="fill:#E8ECF9;" cx="90.344" cy="391.516" r="15.059"/>
		<circle style="fill:#E8ECF9;" cx="30.109" cy="323.751" r="15.059"/>
	</g>
	<g>
		<path style="fill:none;stroke:#000000;stroke-width:15;stroke-linecap:round;stroke-linejoin:round;stroke-miterlimit:10;" d="&#10;&#9;&#9;&#9;M456.231,437.956c13.53,3.05,24.29,7.38,32.19,11.34c9.84,4.94,16.04,15.02,16.04,26.03c0,16.09-13.04,29.13-29.13,29.13H36.651&#10;&#9;&#9;&#9;c-22.876,0-36.673-25.158-24.8-44.42c2.78-4.51,6.79-8.27,11.71-10.74c20.47-10.27,60.22-23.03,117.46-9.69"/>
		<path style="fill:none;stroke:#000000;stroke-width:15;stroke-linecap:round;stroke-linejoin:round;stroke-miterlimit:10;" d="&#10;&#9;&#9;&#9;M370.961,439.606c18.73-4.36,35.58-5.94,50.5-5.71"/>
		<path style="fill:none;stroke:#000000;stroke-width:15;stroke-linecap:round;stroke-linejoin:round;stroke-miterlimit:10;" d="&#10;&#9;&#9;&#9;M128.521,305.876c2.75,0.55,5.55,1.04,8.4,1.47c7.39,1.11,12.85,7.49,12.76,14.96c-0.11,10.28,1.89,21.63,3.98,30.56"/>
		<path style="fill:none;stroke:#000000;stroke-width:15;stroke-linecap:round;stroke-linejoin:round;stroke-miterlimit:10;" d="&#10;&#9;&#9;&#9;M94.871,296.156c-17.5-6.7-31.67-14.74-41.54-21.17c-6.8-4.43-10.62-11.9-10.62-19.64c0-15.822,15.351-27.146,30.5-22.45&#10;&#9;&#9;&#9;c16.31,5.06,31.83,8.63,46.42,11.02"/>
		<path style="fill:none;stroke:#000000;stroke-width:15;stroke-linecap:round;stroke-linejoin:round;stroke-miterlimit:10;" d="&#10;&#9;&#9;&#9;M363.461,247.336c22.42-1.6,47.73-5.88,75.31-14.44c11.71-3.63,24.26,2.32,28.81,13.71c4.155,10.387,0.444,22.273-8.93,28.38&#10;&#9;&#9;&#9;c-16.89,11-46.39,26.75-83.58,32.35c-7.4,1.12-12.85,7.5-12.77,14.97c0.12,10.29-1.88,21.64-3.96,30.56"/>
		<path style="fill:none;stroke:#000000;stroke-width:15;stroke-linecap:round;stroke-linejoin:round;stroke-miterlimit:10;" d="&#10;&#9;&#9;&#9;M357.631,100.666c15.17,9,40.67,30.56,41.41,74.09c0.94,56.02-60.94,90.79-99.36,127.01c-7.34,6.92-17.65,9.68-27.46,7.36&#10;&#9;&#9;&#9;c-51.39-12.16-122.36-11.33-149.55-60.32c-21.13-38.06-9.82-69.48-1.18-84.86"/>
		<path style="fill:none;stroke:#000000;stroke-width:15;stroke-linecap:round;stroke-linejoin:round;stroke-miterlimit:10;" d="&#10;&#9;&#9;&#9;M144.741,162.146c-1.77,8.66-1.64,17.44,0.65,26.01c6.23,23.24,25.72,34.98,51.94,37.83"/>
		<path style="fill:none;stroke:#000000;stroke-width:15;stroke-linecap:round;stroke-linejoin:round;stroke-miterlimit:10;" d="&#10;&#9;&#9;&#9;M335.981,110.066c6.18,6.76,10.68,14.66,13.05,23.53c6.23,23.24-4.79,43.16-26.09,58.73"/>
		<path style="fill:none;stroke:#000000;stroke-width:15;stroke-linecap:round;stroke-linejoin:round;stroke-miterlimit:10;" d="&#10;&#9;&#9;&#9;M80.411,53.386c1.97,3.35,4.6,6.65,8.09,9.71c18.61,16.35,29.54,28.27,33.18,59.36"/>
		<path style="fill:none;stroke:#000000;stroke-width:15;stroke-linecap:round;stroke-linejoin:round;stroke-miterlimit:10;" d="&#10;&#9;&#9;&#9;M99.311,30.506c19.01,4.23,52.47,4.15,108.93-15.09c80.8-27.53,116.18,23.61,128.69,50.42"/>
		<path style="fill:none;stroke:#000000;stroke-width:15;stroke-linecap:round;stroke-linejoin:round;stroke-miterlimit:10;" d="&#10;&#9;&#9;&#9;M294.561,62.986c13.49-0.35,25.01,0.36,34.28,1.43c15.29,1.77,27.27,13.95,28.76,29.27c0.96,9.91-7.83,17.94-17.64,16.19&#10;&#9;&#9;&#9;c-61.766-11.042-150.596,12.769-198.57,53.21c-7.578,6.39-19.23,3.892-23.37-5.21c-6.37-14.01-2.08-30.55,10.27-39.73&#10;&#9;&#9;&#9;c37.5-27.83,86.431-45.359,131.39-52.04"/>
		
			<circle style="fill:none;stroke:#000000;stroke-width:15;stroke-linecap:round;stroke-linejoin:round;stroke-miterlimit:10;" cx="75.726" cy="30.099" r="22.588"/>
		<path style="fill:none;stroke:#000000;stroke-width:15;stroke-linecap:round;stroke-linejoin:round;stroke-miterlimit:10;" d="&#10;&#9;&#9;&#9;M333.677,191.319c13.424-3.772,24.28,11.031,16.646,22.7c-8.77,13.405-25.186,24.687-55.811,22.841&#10;&#9;&#9;&#9;c-11.724-0.709-19.865-6.446-25.295-12.618c-2.949-3.352-8.496-1.866-9.374,2.512c-1.617,8.06-5.798,17.099-15.597,23.575&#10;&#9;&#9;&#9;c-25.599,16.911-45.457,15.349-59.754,8.125c-12.445-6.288-10.446-24.536,3.066-27.982c7.535-1.921,14.583-6.027,18.634-14.059&#10;&#9;&#9;&#9;c13.933-27.642,34.798-30.604,43.63-30.509c2.686,0.029,5.339-0.682,7.651-2.05c7.601-4.497,27.152-12.365,53.039,4.607&#10;&#9;&#9;&#9;C318.035,193.391,326.191,193.423,333.677,191.319z"/>
		
			<line style="fill:none;stroke:#000000;stroke-width:15;stroke-linecap:round;stroke-linejoin:round;stroke-miterlimit:10;" x1="442.912" y1="283.029" x2="423.77" y2="238.365"/>
		
			<line style="fill:none;stroke:#000000;stroke-width:15;stroke-linecap:round;stroke-linejoin:round;stroke-miterlimit:10;" x1="88.13" y1="238.557" x2="69.153" y2="282.837"/>
		<path style="fill:none;stroke:#000000;stroke-width:15;stroke-linecap:round;stroke-linejoin:round;stroke-miterlimit:10;" d="&#10;&#9;&#9;&#9;M149.001,470.426c-14.32-37.39-2.75-70.45,4.45-85.44"/>
		<path style="fill:none;stroke:#000000;stroke-width:15;stroke-linecap:round;stroke-linejoin:round;stroke-miterlimit:10;" d="&#10;&#9;&#9;&#9;M358.531,384.986c22.498,46.84,4.45,84.327,4.45,85.44"/>
		<path style="fill:none;stroke:#000000;stroke-width:15;stroke-linecap:round;stroke-linejoin:round;stroke-miterlimit:10;" d="&#10;&#9;&#9;&#9;M199.151,473.176c7.3-2.84,25.43-11.79,45.3-35.93c5.96-7.26,17.12-7.26,23.08,0c19.87,24.14,38,33.09,45.3,35.93"/>
		<path style="fill:none;stroke:#000000;stroke-width:15;stroke-linecap:round;stroke-linejoin:round;stroke-miterlimit:10;" d="&#10;&#9;&#9;&#9;M188.285,504.457H158.05c-8.284,0-15-6.716-15-15c0-16.828,13.595-30.176,30.118-30.176c16.633,0,30.118,13.484,30.118,30.118&#10;&#9;&#9;&#9;C203.285,497.926,196.409,504.457,188.285,504.457z"/>
		<path style="fill:none;stroke:#000000;stroke-width:15;stroke-linecap:round;stroke-linejoin:round;stroke-miterlimit:10;" d="&#10;&#9;&#9;&#9;M353.932,504.457h-30.235c-8.284,0-15-6.716-15-15c0-16.828,13.595-30.176,30.118-30.176c16.633,0,30.118,13.484,30.118,30.118&#10;&#9;&#9;&#9;C368.932,497.926,362.056,504.457,353.932,504.457z"/>
		<path style="fill:none;stroke:#000000;stroke-width:15;stroke-linecap:round;stroke-linejoin:round;stroke-miterlimit:10;" d="&#10;&#9;&#9;&#9;M288.111,353.866h73.29c8.32,0,15.06,6.74,15.06,15.06c0,8.253-6.673,15.06-15.06,15.06h-73.29"/>
		<path style="fill:none;stroke:#000000;stroke-width:15;stroke-linecap:round;stroke-linejoin:round;stroke-miterlimit:10;" d="&#10;&#9;&#9;&#9;M223.871,383.986h-73.29c-8.32,0-15.06-6.74-15.06-15.06c0-8.253,6.673-15.06,15.06-15.06h73.29"/>
		<path style="fill:none;stroke:#000000;stroke-width:15;stroke-linecap:round;stroke-linejoin:round;stroke-miterlimit:10;" d="&#10;&#9;&#9;&#9;M271.109,399.045h-30.235c-8.284,0-15-6.716-15-15V353.81c0-8.284,6.716-15,15-15h30.235c8.284,0,15,6.716,15,15v30.235&#10;&#9;&#9;&#9;C286.109,392.33,279.393,399.045,271.109,399.045z"/>
		
			<circle style="fill:none;stroke:#000000;stroke-width:15;stroke-linecap:round;stroke-linejoin:round;stroke-miterlimit:10;" cx="399.05" cy="22.575" r="15.059"/>
		
			<circle style="fill:none;stroke:#000000;stroke-width:15;stroke-linecap:round;stroke-linejoin:round;stroke-miterlimit:10;" cx="481.874" cy="52.692" r="15.059"/>
		
			<circle style="fill:none;stroke:#000000;stroke-width:15;stroke-linecap:round;stroke-linejoin:round;stroke-miterlimit:10;" cx="444.226" cy="127.986" r="15.059"/>
		
			<circle style="fill:none;stroke:#000000;stroke-width:15;stroke-linecap:round;stroke-linejoin:round;stroke-miterlimit:10;" cx="489.403" cy="188.222" r="15.059"/>
		
			<circle style="fill:none;stroke:#000000;stroke-width:15;stroke-linecap:round;stroke-linejoin:round;stroke-miterlimit:10;" cx="421.638" cy="391.516" r="15.059"/>
		
			<circle style="fill:none;stroke:#000000;stroke-width:15;stroke-linecap:round;stroke-linejoin:round;stroke-miterlimit:10;" cx="481.874" cy="323.751" r="15.059"/>
		
			<circle style="fill:none;stroke:#000000;stroke-width:15;stroke-linecap:round;stroke-linejoin:round;stroke-miterlimit:10;" cx="67.756" cy="127.986" r="15.059"/>
		
			<circle style="fill:none;stroke:#000000;stroke-width:15;stroke-linecap:round;stroke-linejoin:round;stroke-miterlimit:10;" cx="22.579" cy="188.222" r="15.059"/>
		
			<circle style="fill:none;stroke:#000000;stroke-width:15;stroke-linecap:round;stroke-linejoin:round;stroke-miterlimit:10;" cx="90.344" cy="391.516" r="15.059"/>
		
			<circle style="fill:none;stroke:#000000;stroke-width:15;stroke-linecap:round;stroke-linejoin:round;stroke-miterlimit:10;" cx="30.109" cy="323.751" r="15.059"/>
		<g>
			<path style="fill:none;stroke:#000000;stroke-width:15;stroke-linecap:round;stroke-linejoin:round;stroke-miterlimit:10;" d="&#10;&#9;&#9;&#9;&#9;M209.545,175.746c-1.968-7.343-9.515-11.701-16.859-9.733c-7.343,1.968-11.701,9.515-9.733,16.859"/>
			<path style="fill:none;stroke:#000000;stroke-width:15;stroke-linecap:round;stroke-linejoin:round;stroke-miterlimit:10;" d="&#10;&#9;&#9;&#9;&#9;M287.272,154.919c-1.968-7.343,2.39-14.891,9.733-16.859c7.343-1.968,14.891,2.39,16.859,9.733"/>
		</g>
	</g>
</g>
<g>
</g>
<g>
</g>
<g>
</g>
<g>
</g>
<g>
</g>
<g>
</g>
<g>
</g>
<g>
</g>
<g>
</g>
<g>
</g>
<g>
</g>
<g>
</g>
<g>
</g>
<g>
</g>
<g>
</g>
</svg>